#tb 0: 1/25
#media_type 0: video
#codec_id 0: rawvideo
#dimensions 0: 352x288
#sar 0: 1/1
0,          1,          1,        1,   152064, 0xd40485b3
0,          2,          2,        1,   152064, 0x7f2b526c
0,          3,          3,        1,   152064, 0x02dbe5f3
0,          4,          4,        1,   152064, 0xed1561f7
0,          5,          5,        1,   152064, 0xf1d8b770
